<svg xmlns="http://www.w3.org/2000/svg" xmlns:xlink="http://www.w3.org/1999/xlink" xmlns:s="https://github.com/nturley/netlistsvg" width="259" height="226.5">
  <style>svg {
    stroke:#000;
    fill:none;
  }
  text {
    fill:#000;
    stroke:none;
    font-size:10px;
    font-weight: bold;
    font-family: "Courier New", monospace;
  }
  .nodelabel {
    text-anchor: middle;
  }
  .inputPortLabel {
    text-anchor: end;
  }
  .splitjoinBody {
    fill:#000;
  }</style>
  <g s:type="add" transform="translate(80.33333333333333,29.5)" s:width="25" s:height="25" id="cell_$add$sum_reduce.sv:13$2">
    <s:alias val="$add"/>
    <circle r="12.5" cx="12.5" cy="12.5" class="cell_$add$sum_reduce.sv:13$2"/>
    <line x1="7.5" x2="17.5" y1="12.5" y2="12.5" class="cell_$add$sum_reduce.sv:13$2"/>
    <line x1="12.5" x2="12.5" y1="7.5" y2="17.5" class="cell_$add$sum_reduce.sv:13$2"/>
    <g s:x="3" s:y="5" s:pid="A"/>
    <g s:x="3" s:y="20" s:pid="B"/>
    <g s:x="25" s:y="12.5" s:pid="Y"/>
  </g>
  <g s:type="dff" transform="translate(207,89.5)" s:width="30" s:height="40" id="cell_$procdff$7">
    <s:alias val="$dff"/>
    <s:alias val="$_DFF_"/>
    <s:alias val="$_DFF_P_"/>
    <rect width="30" height="40" x="0" y="0" class="cell_$procdff$7"/>
    <path d="M0,35 L5,30 L0,25" class="cell_$procdff$7"/>
    <g s:x="30" s:y="10" s:pid="Q"/>
    <g s:x="0" s:y="30" s:pid="CLK"/>
    <g s:x="0" s:y="30" s:pid="C"/>
    <g s:x="0" s:y="10" s:pid="D"/>
  </g>
  <g s:type="mux" transform="translate(145.33333333333334,79.5)" s:width="20" s:height="40" id="cell_$procmux$5">
    <s:alias val="$pmux"/>
    <s:alias val="$mux"/>
    <s:alias val="$_MUX_"/>
    <path d="M0,0 L20,10 L20,30 L0,40 Z" class="cell_$procmux$5"/>
    <g s:x="0" s:y="10" s:pid="A"/>
    <g s:x="0" s:y="30" s:pid="B"/>
    <g s:x="10" s:y="35" s:pid="S"/>
    <g s:x="20" s:y="20" s:pid="Y"/>
  </g>
  <g s:type="inputExt" transform="translate(142,194.5)" s:width="30" s:height="20" id="cell_clk">
    <text x="15" y="-4" class="nodelabel cell_clk" s:attribute="ref">clk</text>
    <s:alias val="$_inputExt_"/>
    <path d="M0,0 L0,20 L15,20 L30,10 L15,0 Z" class="cell_clk"/>
    <g s:x="28" s:y="10" s:pid="Y"/>
  </g>
  <g s:type="inputExt" transform="translate(77,164.5)" s:width="30" s:height="20" id="cell_rst">
    <text x="15" y="-4" class="nodelabel cell_rst" s:attribute="ref">rst</text>
    <s:alias val="$_inputExt_"/>
    <path d="M0,0 L0,20 L15,20 L30,10 L15,0 Z" class="cell_rst"/>
    <g s:x="28" s:y="10" s:pid="Y"/>
  </g>
  <g s:type="inputExt" transform="translate(12,39.5)" s:width="30" s:height="20" id="cell_num">
    <text x="15" y="-4" class="nodelabel cell_num" s:attribute="ref">num</text>
    <s:alias val="$_inputExt_"/>
    <path d="M0,0 L0,20 L15,20 L30,10 L15,0 Z" class="cell_num"/>
    <g s:x="28" s:y="10" s:pid="Y"/>
  </g>
  <g s:type="outputExt" transform="translate(207,32)" s:width="30" s:height="20" id="cell_sum">
    <text x="15" y="-4" class="nodelabel cell_sum" s:attribute="ref">sum</text>
    <s:alias val="$_outputExt_"/>
    <path d="M30,0 L30,20 L15,20 L0,10 L15,0 Z" class="cell_sum"/>
    <g s:x="0" s:y="10" s:pid="A"/>
  </g>
  <g s:type="constant" transform="translate(77,99.5)" s:width="30" s:height="20" id="cell_0000">
    <text x="15" y="-4" class="nodelabel cell_0000" s:attribute="ref">0x0</text>
    <s:alias val="$_constant_"/>
    <rect width="30" height="20" class="cell_0000"/>
    <g s:x="30" s:y="10" s:pid="Y"/>
  </g>
  <line x1="237" x2="247" y1="99.5" y2="99.5" class="net_12,13,14,15"/>
  <line x1="247" x2="247" y1="99.5" y2="12" class="net_12,13,14,15"/>
  <line x1="247" x2="52" y1="12" y2="12" class="net_12,13,14,15"/>
  <line x1="52" x2="52" y1="12" y2="34.5" class="net_12,13,14,15"/>
  <line x1="52" x2="83.33333333333333" y1="34.5" y2="34.5" class="net_12,13,14,15"/>
  <line x1="40" x2="83.33333333333333" y1="49.5" y2="49.5" class="net_4,5,6,7"/>
  <line x1="170" x2="182" y1="204.5" y2="204.5" class="net_2"/>
  <line x1="182" x2="182" y1="204.5" y2="119.5" class="net_2"/>
  <line x1="182" x2="207" y1="119.5" y2="119.5" class="net_2"/>
  <line x1="165.33333333333334" x2="207" y1="99.5" y2="99.5" class="net_16,17,18,19"/>
  <line x1="105.33333333333333" x2="117" y1="42" y2="42" class="net_8,9,10,11"/>
  <line x1="117" x2="117" y1="42" y2="89.5" class="net_8,9,10,11"/>
  <circle cx="117" cy="42" r="2" style="fill:#000" class="net_8,9,10,11"/>
  <line x1="117" x2="145.33333333333334" y1="89.5" y2="89.5" class="net_8,9,10,11"/>
  <line x1="105.33333333333333" x2="207" y1="42" y2="42" class="net_8,9,10,11"/>
  <line x1="107" x2="145.33333333333334" y1="109.5" y2="109.5" class="net_20,21,22,23"/>
  <line x1="105" x2="155.33333333333334" y1="174.5" y2="174.5" class="net_3"/>
  <line x1="155.33333333333334" x2="155.33333333333334" y1="174.5" y2="114.5" class="net_3"/>
</svg>
