<svg xmlns="http://www.w3.org/2000/svg" xmlns:xlink="http://www.w3.org/1999/xlink" xmlns:s="https://github.com/nturley/netlistsvg" width="476" height="217.5">
  <style>svg {
    stroke:#000;
    fill:none;
  }
  text {
    fill:#000;
    stroke:none;
    font-size:10px;
    font-weight: bold;
    font-family: "Courier New", monospace;
  }
  .nodelabel {
    text-anchor: middle;
  }
  .inputPortLabel {
    text-anchor: end;
  }
  .splitjoinBody {
    fill:#000;
  }</style>
  <g s:type="generic" transform="translate(167,142.5)" s:width="30" s:height="40" id="cell_add1">
    <text x="15" y="-4" class="nodelabel cell_add1" s:attribute="ref">adder_logic_1_bit</text>
    <rect width="30" height="60" s:generic="body" class="cell_add1"/>
    <g transform="translate(0,10)" s:x="0" s:y="10" s:pid="in0" id="port_add1~a">
      <text x="-3" y="-4" class="inputPortLabel cell_add1">a</text>
    </g>
    <g transform="translate(0,30)" s:x="0" s:y="10" s:pid="in0" id="port_add1~b">
      <text x="-3" y="-4" class="inputPortLabel cell_add1">b</text>
    </g>
    <g transform="translate(0,50)" s:x="0" s:y="10" s:pid="in0" id="port_add1~c_in">
      <text x="-3" y="-4" class="inputPortLabel cell_add1">c_in</text>
    </g>
    <g transform="translate(30,10)" s:x="30" s:y="10" s:pid="out0" id="port_add1~c_out">
      <text x="5" y="-4" style="fill:#000; stroke:none" class="cell_add1">c_out</text>
    </g>
    <g transform="translate(30,30)" s:x="30" s:y="10" s:pid="out0" id="port_add1~sum">
      <text x="5" y="-4" style="fill:#000; stroke:none" class="cell_add1">sum</text>
    </g>
  </g>
  <g s:type="generic" transform="translate(289,91)" s:width="30" s:height="40" id="cell_add2">
    <text x="15" y="-4" class="nodelabel cell_add2" s:attribute="ref">adder_logic_1_bit</text>
    <rect width="30" height="60" s:generic="body" class="cell_add2"/>
    <g transform="translate(0,10)" s:x="0" s:y="10" s:pid="in0" id="port_add2~a">
      <text x="-3" y="-4" class="inputPortLabel cell_add2">a</text>
    </g>
    <g transform="translate(0,30)" s:x="0" s:y="10" s:pid="in0" id="port_add2~b">
      <text x="-3" y="-4" class="inputPortLabel cell_add2">b</text>
    </g>
    <g transform="translate(0,50)" s:x="0" s:y="10" s:pid="in0" id="port_add2~c_in">
      <text x="-3" y="-4" class="inputPortLabel cell_add2">c_in</text>
    </g>
    <g transform="translate(30,10)" s:x="30" s:y="10" s:pid="out0" id="port_add2~c_out">
      <text x="5" y="-4" style="fill:#000; stroke:none" class="cell_add2">c_out</text>
    </g>
    <g transform="translate(30,30)" s:x="30" s:y="10" s:pid="out0" id="port_add2~sum">
      <text x="5" y="-4" style="fill:#000; stroke:none" class="cell_add2">sum</text>
    </g>
  </g>
  <g s:type="inputExt" transform="translate(12,24.5)" s:width="30" s:height="20" id="cell_a">
    <text x="15" y="-4" class="nodelabel cell_a" s:attribute="ref">a</text>
    <s:alias val="$_inputExt_"/>
    <path d="M0,0 L0,20 L15,20 L30,10 L15,0 Z" class="cell_a"/>
    <g s:x="28" s:y="10" s:pid="Y"/>
  </g>
  <g s:type="inputExt" transform="translate(12,101.5)" s:width="30" s:height="20" id="cell_b">
    <text x="15" y="-4" class="nodelabel cell_b" s:attribute="ref">b</text>
    <s:alias val="$_inputExt_"/>
    <path d="M0,0 L0,20 L15,20 L30,10 L15,0 Z" class="cell_b"/>
    <g s:x="28" s:y="10" s:pid="Y"/>
  </g>
  <g s:type="inputExt" transform="translate(77,176)" s:width="30" s:height="20" id="cell_c_in">
    <text x="15" y="-4" class="nodelabel cell_c_in" s:attribute="ref">c_in</text>
    <s:alias val="$_inputExt_"/>
    <path d="M0,0 L0,20 L15,20 L30,10 L15,0 Z" class="cell_c_in"/>
    <g s:x="28" s:y="10" s:pid="Y"/>
  </g>
  <g s:type="outputExt" transform="translate(434,91.5)" s:width="30" s:height="20" id="cell_c_out">
    <text x="15" y="-4" class="nodelabel cell_c_out" s:attribute="ref">c_out</text>
    <s:alias val="$_outputExt_"/>
    <path d="M30,0 L30,20 L15,20 L0,10 L15,0 Z" class="cell_c_out"/>
    <g s:x="0" s:y="10" s:pid="A"/>
  </g>
  <g s:type="outputExt" transform="translate(434,173)" s:width="30" s:height="20" id="cell_sum">
    <text x="15" y="-4" class="nodelabel cell_sum" s:attribute="ref">sum</text>
    <s:alias val="$_outputExt_"/>
    <path d="M30,0 L30,20 L15,20 L0,10 L15,0 Z" class="cell_sum"/>
    <g s:x="0" s:y="10" s:pid="A"/>
  </g>
  <g s:type="join" transform="translate(393,162.5)" s:width="4" s:height="40" id="cell_$join$,8,9,">
    <rect width="5" height="40" class="splitjoinBody" s:generic="body"/>
    <s:alias val="$_join_"/>
    <g s:x="5" s:y="20" s:pid="out"/>
    <g transform="translate(0,10)" s:x="0" s:y="10" s:pid="in0">
      <text x="-3" y="-4" class="inputPortLabel">0</text>
    </g>
    <g transform="translate(0,30)" s:x="0" s:y="10" s:pid="in0">
      <text x="-3" y="-4" class="inputPortLabel">1</text>
    </g>
  </g>
  <g s:type="split" transform="translate(91.33333333333333,14)" s:width="5" s:height="40" id="cell_$split$,2,3,">
    <rect width="5" height="40" class="splitjoinBody" s:generic="body"/>
    <s:alias val="$_split_"/>
    <g s:x="0" s:y="20" s:pid="in"/>
    <g transform="translate(4,10)" s:x="4" s:y="10" s:pid="out0">
      <text x="5" y="-4">0</text>
    </g>
    <g transform="translate(4,30)" s:x="4" s:y="10" s:pid="out0">
      <text x="5" y="-4">1</text>
    </g>
  </g>
  <g s:type="split" transform="translate(91.33333333333333,91)" s:width="5" s:height="40" id="cell_$split$,4,5,">
    <rect width="5" height="40" class="splitjoinBody" s:generic="body"/>
    <s:alias val="$_split_"/>
    <g s:x="0" s:y="20" s:pid="in"/>
    <g transform="translate(4,10)" s:x="4" s:y="10" s:pid="out0">
      <text x="5" y="-4">0</text>
    </g>
    <g transform="translate(4,30)" s:x="4" s:y="10" s:pid="out0">
      <text x="5" y="-4">1</text>
    </g>
  </g>
  <line x1="96.33333333333333" x2="127" y1="24.5" y2="24.5" class="net_2"/>
  <line x1="127" x2="127" y1="24.5" y2="153" class="net_2"/>
  <line x1="127" x2="167" y1="153" y2="153" class="net_2"/>
  <line x1="96.33333333333333" x2="117" y1="101.5" y2="101.5" class="net_4"/>
  <line x1="117" x2="117" y1="101.5" y2="173" class="net_4"/>
  <line x1="117" x2="167" y1="173" y2="173" class="net_4"/>
  <line x1="105" x2="117" y1="186" y2="186" class="net_6"/>
  <line x1="117" x2="117" y1="186" y2="193" class="net_6"/>
  <line x1="117" x2="167" y1="193" y2="193" class="net_6"/>
  <line x1="96.33333333333333" x2="239" y1="44.5" y2="44.5" class="net_3"/>
  <line x1="239" x2="239" y1="44.5" y2="101.5" class="net_3"/>
  <line x1="239" x2="289" y1="101.5" y2="101.5" class="net_3"/>
  <line x1="96.33333333333333" x2="289" y1="121.5" y2="121.5" class="net_5"/>
  <line x1="198" x2="239" y1="153" y2="153" class="net_10"/>
  <line x1="239" x2="239" y1="153" y2="141.5" class="net_10"/>
  <line x1="239" x2="289" y1="141.5" y2="141.5" class="net_10"/>
  <line x1="320" x2="434" y1="101.5" y2="101.5" class="net_7"/>
  <line x1="399" x2="434" y1="183" y2="183" class="net_8,9"/>
  <line x1="198" x2="393" y1="173" y2="173" class="net_8"/>
  <line x1="320" x2="361" y1="121.5" y2="121.5" class="net_9"/>
  <line x1="361" x2="361" y1="121.5" y2="193" class="net_9"/>
  <line x1="361" x2="393" y1="193" y2="193" class="net_9"/>
  <line x1="40" x2="91.33333333333333" y1="34.5" y2="34.5" class="net_2,3"/>
  <line x1="40" x2="91.33333333333333" y1="111.5" y2="111.5" class="net_4,5"/>
</svg>
